<svg height="400" width="625" xmlns="http://www.w3.org/2000/svg" viewBox="0 0 625 400"><rect x="0" y="360" width="137.5" height="60" fill="#b7ccf4"></rect><rect x="137.5" y="360" width="375" height="60" fill="none"></rect><path d="M 137.5 0 L 137.5 360" stroke="#8d93d3" stroke-width="6" stroke-linecap="round" stroke-dasharray="0,20" stroke-dashoffset="-5"></path><rect x="512.5" y="360" width="112.5" height="60" fill="#b7ccf4"></rect><path d="M 512.5 0 L 512.5 360" stroke="#8d93d3" stroke-width="6" stroke-linecap="round" stroke-dasharray="0,20" stroke-dashoffset="-5"></path><path d="M 0 225 L 25 60 L 125 60 L 150 48 L 250 48 L 275 165 L 375 165 L 400 114 L 500 114 L 525 316.5 L 625 316.5" stroke="#202f55" stroke-width="2" fill="none" stroke-linejoin="round"></path><g><text x="75" y="60" text-anchor="middle" dominant-baseline="text-after-edge" font-size="25">90°C</text><text x="200" y="48" text-anchor="middle" dominant-baseline="text-after-edge" font-size="25">94°C</text><text x="325" y="165" text-anchor="middle" dominant-baseline="text-after-edge" font-size="25">55°C</text><text x="450" y="114" text-anchor="middle" dominant-baseline="text-after-edge" font-size="25">72°C</text><text x="575" y="316.5" text-anchor="middle" dominant-baseline="text-after-edge" font-size="25">4.5°C</text></g><g><text x="75" y="60" text-anchor="middle" dominant-baseline="text-before-edge" font-size="25">20s</text><text x="200" y="48" text-anchor="middle" dominant-baseline="text-before-edge" font-size="25">1min</text><text x="325" y="165" text-anchor="middle" dominant-baseline="text-before-edge" font-size="25">2min</text><text x="450" y="114" text-anchor="middle" dominant-baseline="text-before-edge" font-size="25">3min</text><text x="575" y="316.5" text-anchor="middle" dominant-baseline="text-before-edge" font-size="25">∞</text></g><g><text x="68.75" y="380" text-anchor="middle" dominant-baseline="middle" font-size="25">x1</text><text x="325" y="380" text-anchor="middle" dominant-baseline="middle" font-size="25">x30</text><text x="568.75" y="380" text-anchor="middle" dominant-baseline="middle" font-size="25">x1</text></g></svg>
